<?xml version="1.0" encoding="utf-8"?>
<!-- Generator: Adobe Illustrator 24.3.0, SVG Export Plug-In . SVG Version: 6.00 Build 0)  -->
<svg version="1.1" id="Capa_1" xmlns="http://www.w3.org/2000/svg" xmlns:xlink="http://www.w3.org/1999/xlink" x="0px" y="0px"
	 viewBox="0 0 492.7 435.6" style="enable-background:new 0 0 492.7 435.6;" xml:space="preserve">
<style type="text/css">
	.st0{fill:#4C7F70;}
	.st1{fill:#EA7E46;}
</style>
<path class="st0" d="M194.8,0v352.1c0,46.1-31.1,83.5-69.4,83.5H81.7l4.8-2.9c24.8-14.9,40.5-45.4,40.5-78.8l0,0V156.2l0,0
	c0.4-39.4,12.2-77.4,33.4-107.4L194.8,0z"/>
<path class="st0" d="M21.2,333.3c10.4-6.4,23-8.3,34.8-5c10.6,3,22.1,10.8,22.1,30.3c0,36.1-42.1,34.1-5.2,77
	c0,0-61.6-4.4-71.9-54.4c-2.8-13.7,0.4-28.2,9.5-38.8C13.6,338.8,17.2,335.7,21.2,333.3z"/>
<path class="st0" d="M341.3,270.5c-2.5-14.2-7.2-27.8-13.9-40.5L212.1,0v81.6c0,44.6,11,88.5,32,127.8l26.6,49.7
	c6.9,13,15.9,24.8,26.5,35C303.6,276.1,322.7,265.8,341.3,270.5L341.3,270.5z"/>
<path class="st0" d="M368.1,317.4l-17.9-26.7l-0.5-0.8l-7.9-11.8l0,0c-16.2-3.4-32.4,5.3-38.6,20.6l0,0l5.4,13.1
	c0.1,0.3,0.2,0.6,0.3,0.9l6.5,15.8l0,0l5.8,14l20.4,49.4l5.6,2.8c16.2,8.2,30.9,19.2,43.2,32.5l2.5,2.6l5.7,5.7L374.6,391
	c-2.6-0.5-5.6-3.2-7.7-7.1c-2.8-5.3-2.8-10.8,0-12.3s7.4,1.5,10.2,6.8c2.1,3.9,2.6,7.9,1.6,10.4l23.9,44.7l-1.6-7.9
	c-5.2-19.8-6.4-40.5-3.5-60.8l0.4-3L368.1,317.4z"/>
<path class="st0" d="M303.4,290.7l-0.3,0.6l0.7,0.1L303.4,290.7z"/>
<path class="st1" d="M488.4,0c-15,0-29.9,2.2-44.3,6.4c-1.6,0.5-3.2,1-4.8,1.5c-100.8,41-36.6,134.9-36.6,134.9l0,0
	c0-50.9,25.1-98.4,67.1-127.1l23-15.7L488.4,0z"/>
<path class="st0" d="M380.9,42.8c-4.8,4.6-9.4,9.5-13.6,14.6l0,0C328.6,104.6,321,170.1,347.8,225l54.8,112.4V164.9l-11.8-19
	C390.9,145.9,352.6,87.7,380.9,42.8z"/>
</svg>
