<svg id="Capa_1" data-name="Capa 1" xmlns="http://www.w3.org/2000/svg" viewBox="0 0 492.73 435.61"><defs><style>.cls-1{fill:#fffffc;}.cls-2{fill:#ea7e46;}</style></defs><path class="cls-1" d="M198.46,25.38V377.53c0,46.09-31.05,83.46-69.36,83.46H85.31l4.78-2.88c24.81-14.92,40.48-45.43,40.48-78.8h0V181.63h0c.38-39.4,12.19-77.4,33.4-107.42Z" transform="translate(-3.64 -25.38)"/><path class="cls-1" d="M24.86,358.67a43.79,43.79,0,0,1,34.78-5c10.56,3,22.08,10.81,22.08,30.34,0,36.07-42.07,34.07-5.2,76.95,0,0-61.56-4.38-71.88-54.42C1.8,392.8,5,378.34,14.18,367.71A45,45,0,0,1,24.86,358.67Z" transform="translate(-3.64 -25.38)"/><path class="cls-1" d="M344.9,295.86A136.82,136.82,0,0,0,331,255.31L215.69,25.38V107a271,271,0,0,0,32,127.78l26.56,49.7a139.08,139.08,0,0,0,26.52,35,37.23,37.23,0,0,1,44.12-23.6Z" transform="translate(-3.64 -25.38)"/><path class="cls-1" d="M371.78,342.8l-17.91-26.72-.54-.77-7.91-11.77h0a33.94,33.94,0,0,0-38.56,20.61h0l5.4,13.13q.15.44.33.87l6.5,15.75h0l5.77,14,20.39,49.41,5.56,2.82a153.33,153.33,0,0,1,43.23,32.52l2.45,2.65,5.68,5.71-23.88-44.67c-2.59-.52-5.64-3.21-7.73-7.12-2.82-5.27-2.82-10.76,0-12.26s7.37,1.55,10.19,6.82c2.09,3.91,2.63,7.94,1.63,10.38l23.87,44.67-1.59-7.89a153.39,153.39,0,0,1-3.54-60.77l.42-2.95Z" transform="translate(-3.64 -25.38)"/><path class="cls-1" d="M307.06,316.1l-.26.62.66.14Z" transform="translate(-3.64 -25.38)"/><path class="cls-2" d="M492,25.38a156.34,156.34,0,0,0-44.28,6.4q-2.4.7-4.78,1.49c-100.8,41-36.65,134.94-36.65,134.94h0A154,154,0,0,1,473.38,41.08l23-15.7Z" transform="translate(-3.64 -25.38)"/><path class="cls-1" d="M384.54,68.14a157.45,157.45,0,0,0-13.63,14.61h0a156.41,156.41,0,0,0-19.49,167.63l54.84,112.36V190.28l-11.75-19S356.25,113.08,384.54,68.14Z" transform="translate(-3.64 -25.38)"/></svg>